<svg width="20" height="20" viewBox="0 0 20 20" fill="none" xmlns="http://www.w3.org/2000/svg">
<rect x="3.33325" y="9.47369" width="1.11111" height="1.05263" fill="#808080"/>
<rect x="14.4443" y="9.47369" width="1.11111" height="1.05263" fill="#808080"/>
<rect x="12.2222" y="9.47369" width="1.11111" height="1.05263" fill="#808080"/>
<rect x="10" y="9.47369" width="1.11111" height="1.05263" fill="#808080"/>
<rect x="7.77783" y="9.47369" width="1.11111" height="1.05263" fill="#808080"/>
<rect x="5.55566" y="9.47369" width="1.11111" height="1.05263" fill="#808080"/>
<rect x="3.33325" y="15.7895" width="1.11111" height="1.05263" fill="#808080"/>
<rect x="14.4443" y="15.7895" width="1.11111" height="1.05263" fill="#808080"/>
<rect x="12.2222" y="15.7895" width="1.11111" height="1.05263" fill="#808080"/>
<rect x="10" y="15.7895" width="1.11111" height="1.05263" fill="#808080"/>
<rect x="7.77783" y="15.7895" width="1.11111" height="1.05263" fill="#808080"/>
<rect x="5.55566" y="15.7895" width="1.11111" height="1.05263" fill="#808080"/>
<rect x="3.33325" y="11.5789" width="1.11111" height="1.05263" fill="#808080"/>
<rect x="14.4443" y="11.5789" width="1.11111" height="1.05263" fill="#808080"/>
<rect x="12.2222" y="11.5789" width="1.11111" height="1.05263" fill="#808080"/>
<rect x="10" y="11.5789" width="1.11111" height="1.05263" fill="#808080"/>
<rect x="7.77783" y="11.5789" width="1.11111" height="1.05263" fill="#808080"/>
<rect x="5.55566" y="11.5789" width="1.11111" height="1.05263" fill="#808080"/>
<rect x="3.33325" y="13.6842" width="1.11111" height="1.05263" fill="#808080"/>
<rect x="14.4443" y="13.6842" width="1.11111" height="1.05263" fill="#808080"/>
<rect x="12.2222" y="13.6842" width="1.11111" height="1.05263" fill="#808080"/>
<rect x="10" y="13.6842" width="1.11111" height="1.05263" fill="#808080"/>
<rect x="7.77783" y="13.6842" width="1.11111" height="1.05263" fill="#808080"/>
<rect x="5.55566" y="13.6842" width="1.11111" height="1.05263" fill="#808080"/>
<rect x="0.5" y="1.55263" width="19" height="17.9474" rx="1.5" stroke="#808080"/>
<path d="M0.5 6.8158H19.5V18C19.5 18.8284 18.8284 19.5 18 19.5H2C1.17157 19.5 0.5 18.8284 0.5 18V6.8158Z" stroke="#808080"/>
<line x1="6.05566" y1="-1.96701e-08" x2="6.05566" y2="4.21053" stroke="#808080"/>
<line x1="14.9443" y1="-1.96701e-08" x2="14.9443" y2="4.21053" stroke="#808080"/>
</svg>
