<svg width="24" height="24" viewBox="0 0 24 24" fill="none" xmlns="http://www.w3.org/2000/svg">
<path d="M23.139 21.6665L17.5852 16.1126C18.9623 14.4116 19.7915 12.2502 19.7915 9.89605C19.7915 4.43986 15.3519 0.000305176 9.8957 0.000305176C4.43951 0.000305176 0 4.43981 0 9.89601C0 15.3522 4.43956 19.7918 9.89575 19.7918C12.2499 19.7918 14.4113 18.9626 16.1123 17.5855L21.6662 23.1393C21.8693 23.3425 22.1359 23.4446 22.4026 23.4446C22.6693 23.4446 22.936 23.3425 23.1391 23.1393C23.5464 22.7321 23.5464 22.0737 23.139 21.6665ZM9.89575 17.7084C5.58745 17.7084 2.08333 14.2043 2.08333 9.89601C2.08333 5.5877 5.58745 2.08358 9.89575 2.08358C14.2041 2.08358 17.7082 5.5877 17.7082 9.89601C17.7082 14.2043 14.204 17.7084 9.89575 17.7084Z" fill="white"/>
</svg>
